HIERARCHY
ROOT Hips
{
	OFFSET 0.000000 0.000000 0.000000
	CHANNELS 6 Xposition Yposition Zposition Yrotation Xrotation Zrotation
	JOINT Chest
	{
		OFFSET 0.000000 -0.009281 11.569106
		CHANNELS 3 Yrotation Xrotation Zrotation
		JOINT Chest2
		{
			OFFSET -0.000000 0.016865 9.269641
			CHANNELS 3 Yrotation Xrotation Zrotation
			JOINT Chest3
			{
				OFFSET -0.000000 0.000001 8.374491
				CHANNELS 3 Yrotation Xrotation Zrotation
				JOINT Chest4
				{
					OFFSET -0.000000 0.000001 8.374493
					CHANNELS 3 Yrotation Xrotation Zrotation
					JOINT Neck
					{
						OFFSET -0.000000 0.000002 12.152554
						CHANNELS 3 Yrotation Xrotation Zrotation
						JOINT Head
						{
							OFFSET -0.000000 0.040101 7.802319
							CHANNELS 3 Yrotation Xrotation Zrotation
							End Site
							{
								OFFSET -0.000000 0.020947 14.853096
							}
						}
					}
					JOINT RightCollar
					{
						OFFSET 2.894404 0.000001 6.791374
						CHANNELS 3 Yrotation Xrotation Zrotation
						JOINT RightShoulder
						{
							OFFSET 13.574684 0.000001 0.000000
							CHANNELS 3 Yrotation Xrotation Zrotation
							JOINT RightElbow
							{
								OFFSET 23.923903 0.000002 0.000000
								CHANNELS 3 Yrotation Xrotation Zrotation
								JOINT RightWrist
								{
									OFFSET 19.846718 0.012767 0.000000
									CHANNELS 3 Yrotation Xrotation Zrotation
									End Site
									{
										OFFSET 14.973145 0.000001 0.000000
									}
								}
							}
						}
					}
					JOINT LeftCollar
					{
						OFFSET -2.894404 0.000001 6.791374
						CHANNELS 3 Yrotation Xrotation Zrotation
						JOINT LeftShoulder
						{
							OFFSET -13.574684 -0.000001 0.000000
							CHANNELS 3 Yrotation Xrotation Zrotation
							JOINT LeftElbow
							{
								OFFSET -23.923903 -0.000002 0.000000
								CHANNELS 3 Yrotation Xrotation Zrotation
								JOINT LeftWrist
								{
									OFFSET -19.846718 0.012763 0.000000
									CHANNELS 3 Yrotation Xrotation Zrotation
									End Site
									{
										OFFSET -14.973145 -0.000001 0.000000
									}
								}
							}
						}
					}
				}
			}
		}
	}
	JOINT RightHip
	{
		OFFSET 9.469263 0.004643 0.045487
		CHANNELS 3 Yrotation Xrotation Zrotation
		JOINT RightKnee
		{
			OFFSET 0.000000 0.002661 -40.478676
			CHANNELS 3 Yrotation Xrotation Zrotation
			JOINT RightAnkle
			{
				OFFSET 0.000000 0.049106 -35.224068
				CHANNELS 3 Yrotation Xrotation Zrotation
				JOINT RightToe
				{
					OFFSET -0.000001 12.539529 -6.151390
					CHANNELS 3 Yrotation Xrotation Zrotation
					End Site
					{
						OFFSET -0.000001 5.044994 -1.291870
					}
				}
			}
		}
	}
	JOINT LeftHip
	{
		OFFSET -9.469263 0.004641 0.045487
		CHANNELS 3 Yrotation Xrotation Zrotation
		JOINT LeftKnee
		{
			OFFSET 0.000000 0.002661 -40.478676
			CHANNELS 3 Yrotation Xrotation Zrotation
			JOINT LeftAnkle
			{
				OFFSET 0.000000 0.049106 -35.224068
				CHANNELS 3 Yrotation Xrotation Zrotation
				JOINT LeftToe
				{
					OFFSET -0.000001 12.539529 -6.151390
					CHANNELS 3 Yrotation Xrotation Zrotation
					End Site
					{
						OFFSET -0.000001 5.044994 -1.291870
					}
				}
			}
		}
	}
}
MOTION
Frames: 7
Frame Time: 0.016667
9.741339 7.267740 83.142120 -5.152078 -0.959549 -102.904190 -0.666458 -3.212987 1.532112 -0.277143 -1.427119 0.642760 -0.277143 -1.427118 0.642758 -0.206346 -1.070633 0.481397 3.112385 -24.154030 -7.915068 3.600319 -8.687931 -13.420540 9.479790 4.036121 -7.112851 57.453591 48.753139 25.304584 42.330176 36.452884 47.997484 -5.124566 45.527452 7.727665 -8.863858 -4.973041 -4.939385 -51.052590 26.492005 -19.441095 -31.091608 11.334643 -31.143327 -32.522038 33.825163 -5.485813 -1.293870 -5.080290 -3.236353 2.607022 -5.417703 -11.487907 -1.336608 4.808865 1.140767 0.071098 0.061256 -0.006218 -1.001265 -6.403638 0.484828 0.621585 -1.698328 -1.438414 -0.823854 3.032866 -0.423664 0.032604 -0.032745 0.018461 
9.737513 7.269803 83.141640 -5.115027 -0.968200 -102.966611 -0.647505 -3.256755 1.524480 -0.268442 -1.445988 0.640850 -0.268442 -1.445988 0.640848 -0.199805 -1.084775 0.479974 3.148502 -24.064237 -8.169347 3.594587 -8.528186 -13.868384 9.455654 4.215419 -7.114277 57.385870 48.806964 25.631950 42.297866 36.407244 48.186144 -5.507309 45.464157 7.832020 -8.757740 -4.796346 -5.002943 -50.732750 26.619556 -19.415250 -31.155204 11.240098 -31.359762 -32.424503 33.879333 -5.564516 -1.269249 -5.067382 -3.196587 2.576810 -5.344147 -11.533501 -1.303840 4.761415 1.201414 0.039488 0.051153 -0.005245 -0.993680 -6.384302 0.538601 0.625533 -1.676941 -1.462350 -0.816723 3.020151 -0.402200 0.021730 -0.030091 0.017314 
9.737360 7.264289 83.141373 -5.065231 -0.982091 -103.043990 -0.620379 -3.287082 1.517961 -0.258316 -1.459490 0.640501 -0.258316 -1.459491 0.640500 -0.192197 -1.094890 0.479731 3.176327 -23.980161 -8.373965 3.586392 -8.378224 -14.229307 9.433127 4.495106 -7.127816 57.294584 48.756575 25.959135 42.217157 36.372878 48.343703 -5.819030 45.370191 8.072828 -8.656681 -4.630183 -5.074061 -50.450847 26.800033 -19.419256 -31.284729 11.337884 -31.679094 -32.271595 34.079198 -5.761178 -1.234366 -5.059840 -3.146909 2.546565 -5.234325 -11.581253 -1.268215 4.699249 1.266571 0.007080 0.039630 -0.004340 -0.968326 -6.372132 0.619009 0.619557 -1.634783 -1.508931 -0.813239 2.997194 -0.372362 0.015276 -0.019957 0.016224 
9.741415 7.258413 83.141235 -5.009537 -0.988531 -103.132660 -0.606613 -3.299472 1.522257 -0.251178 -1.465145 0.644320 -0.251178 -1.465145 0.644321 -0.186828 -1.099125 0.482612 3.209322 -23.909922 -8.542092 3.597436 -8.252168 -14.523403 9.415012 4.810693 -7.163156 57.222287 48.626599 26.287470 42.084518 36.314562 48.484914 -6.137457 45.283014 8.417206 -8.577243 -4.462619 -5.145916 -50.210537 27.055464 -19.464127 -31.413099 11.537778 -32.019630 -32.201934 34.362870 -6.088593 -1.200641 -5.060345 -3.109174 2.502441 -5.102830 -11.615101 -1.220891 4.629521 1.345255 -0.023374 0.029988 -0.005728 -0.948894 -6.354567 0.682761 0.608522 -1.589487 -1.542737 -0.810774 2.977248 -0.330988 0.013906 -0.015021 0.015977 
9.746630 7.252168 83.141190 -4.947133 -0.990287 -103.225865 -0.602203 -3.295615 1.532255 -0.248418 -1.464030 0.651644 -0.248418 -1.464030 0.651642 -0.184742 -1.098290 0.488111 3.248435 -23.851096 -8.675406 3.628918 -8.145346 -14.753369 9.415340 5.032687 -7.160334 57.214791 48.492461 26.650859 41.995473 36.212819 48.698600 -6.660697 45.241558 8.817597 -8.524037 -4.286359 -5.205016 -49.980961 27.405318 -19.560294 -31.526760 11.740947 -32.289412 -32.160338 34.772978 -6.519932 -1.169910 -5.063387 -3.095166 2.454567 -4.952866 -11.629846 -1.168201 4.553323 1.437098 -0.051989 0.019492 -0.008117 -0.930294 -6.334714 0.698313 0.593043 -1.535022 -1.536949 -0.812997 2.950465 -0.281189 0.017390 -0.008673 0.016968 
9.753648 7.244667 83.141098 -4.883245 -0.992029 -103.321023 -0.600632 -3.287029 1.548165 -0.246829 -1.460603 0.662318 -0.246829 -1.460603 0.662317 -0.183529 -1.095722 0.496122 3.291191 -23.796546 -8.779492 3.674453 -8.044896 -14.929853 9.416941 5.121719 -7.129861 57.358365 48.348939 27.112735 41.893385 36.042010 48.967033 -7.489816 45.192896 9.270746 -8.484700 -4.121363 -5.277151 -49.783162 27.828530 -19.694683 -31.640155 12.004178 -32.535166 -32.112971 35.236143 -6.938650 -1.130008 -5.082062 -3.104427 2.391330 -4.769978 -11.626950 -1.109642 4.463017 1.528710 -0.077609 0.008123 -0.010119 -0.909642 -6.317548 0.684861 0.574357 -1.475516 -1.500218 -0.817204 2.921679 -0.232910 0.022279 -0.002714 0.017701 
9.763385 7.237773 83.140030 -4.820417 -0.994121 -103.425470 -0.591540 -3.281985 1.555473 -0.241822 -1.458481 0.669795 -0.241822 -1.458481 0.669794 -0.179759 -1.094127 0.501741 3.319180 -23.735765 -8.848965 3.701513 -7.932821 -15.048012 9.424556 5.087718 -7.015580 57.621115 48.219756 27.694966 41.740669 35.834984 49.191586 -8.512857 45.037417 9.831763 -8.476661 -3.919708 -5.337363 -49.621027 28.250651 -19.798331 -31.800954 12.380724 -32.847783 -31.941386 35.610229 -7.284248 -1.085233 -5.109405 -3.113104 2.312088 -4.573361 -11.606642 -1.040691 4.367961 1.619584 -0.099869 -0.004670 -0.012059 -0.897175 -6.306796 0.681454 0.568359 -1.410861 -1.450506 -0.826842 2.893902 -0.192621 0.025738 0.001724 0.017535 
